<svg width="98" height="90" viewBox="0 0 98 90" fill="none" xmlns="http://www.w3.org/2000/svg">
<path d="M49.3391 1.86833C51.7706 -0.899592 56.3336 0.58301 56.6739 4.25155L58.8855 28.0969C59.0274 29.6271 59.994 30.9574 61.4054 31.5653L83.4002 41.0372C86.7841 42.4945 86.7841 47.2923 83.4002 48.7495L61.4054 58.2215C59.994 58.8293 59.0274 60.1597 58.8855 61.6899L56.6739 85.5352C56.3336 89.2037 51.7707 90.6863 49.3391 87.9184L33.5339 69.9271C32.5197 68.7726 30.9557 68.2644 29.4566 68.6023L6.09491 73.8675C2.50077 74.6776 -0.319316 70.7961 1.56173 67.6282L13.7884 47.037C14.5731 45.7156 14.5731 44.0711 13.7884 42.7498L1.56173 22.1586C-0.319314 18.9907 2.50077 15.1092 6.0949 15.9192L29.4566 21.1845C30.9557 21.5223 32.5197 21.0142 33.5339 19.8597L49.3391 1.86833Z" fill="#23006F"/>
<path opacity="0.7" d="M44.9819 68.202C38.5953 66.108 33.7278 59.8115 34.8741 54.4577L41.8799 24.7574L45.0941 68.2388L44.9819 68.202Z" fill="#04001E"/>
<path d="M41.734 25.9154C41.734 22.1765 45.5325 19.6368 48.9877 21.0656L94.2572 39.7862C98.5806 41.5741 98.5806 47.6979 94.2572 49.4858L48.9877 68.2065C45.5325 69.6353 41.734 67.0956 41.734 63.3567L41.734 25.9154Z" fill="url(#paint0_linear)"/>
<defs>
<linearGradient id="paint0_linear" x1="65.2821" y1="50.5664" x2="99.2342" y2="19.5657" gradientUnits="userSpaceOnUse">
<stop stop-color="#FF4367"/>
<stop offset="1" stop-color="#FFCFB1"/>
</linearGradient>
</defs>
</svg>
